<?xml version="1.0" encoding="UTF-8"?>
<svg width="12px" height="12px" viewBox="0 0 12 12" version="1.1" xmlns="http://www.w3.org/2000/svg" xmlns:xlink="http://www.w3.org/1999/xlink">
    <!-- Generator: Sketch 47.1 (45422) - http://www.bohemiancoding.com/sketch -->
    <title>出血icon12x12</title>
    <desc>Created with Sketch.</desc>
    <defs>
        <rect id="path-1" x="0" y="0" width="12" height="12"></rect>
    </defs>
    <g id="icons" stroke="none" stroke-width="1" fill="none" fill-rule="evenodd">
        <g id="Group-17">
            <g id="出血icon12x12" opacity="0">
                <use fill="#D8D8D8" fill-rule="evenodd" xlink:href="#path-1"></use>
                <rect stroke="#979797" stroke-width="1" x="0.5" y="0.5" width="11" height="11"></rect>
            </g>
            <path d="M5.25,3 L4,3 L4,4.5 L5.25,4.5 L5.25,5.75 L6.75,5.75 L6.75,4.5 L8,4.5 L8,3 L6.75,3 L6.75,1.75 L5.25,1.75 L5.25,3 Z M2,0 L10,0 C10.5522847,0 11,0.44771525 11,1 L11,11 C11,11.5522847 10.5522847,12 10,12 L2,12 C1.44771525,12 1,11.5522847 1,11 L1,1 C1,0.44771525 1.44771525,0 2,0 Z M4,7 L4,8 L8,8 L8,7 L4,7 Z M4,9 L4,10 L8,10 L8,9 L4,9 Z" id="Combined-Shape" fill="#4E5D6B"></path>
        </g>
    </g>
</svg>