<?xml version="1.0" encoding="UTF-8"?>
<svg width="16px" height="16px" viewBox="0 0 16 16" version="1.1" xmlns="http://www.w3.org/2000/svg" xmlns:xlink="http://www.w3.org/1999/xlink">
    <!-- Generator: Sketch 47.1 (45422) - http://www.bohemiancoding.com/sketch -->
    <title>日历16x16</title>
    <desc>Created with Sketch.</desc>
    <defs>
        <rect id="path-1" x="0" y="0" width="16" height="16"></rect>
    </defs>
    <g id="icons" stroke="none" stroke-width="1" fill="none" fill-rule="evenodd">
        <g id="Group">
            <g id="日历" opacity="0">
                <use fill="#D8D8D8" fill-rule="evenodd" xlink:href="#path-1"></use>
                <rect stroke="#979797" stroke-width="1" x="0.5" y="0.5" width="15" height="15"></rect>
            </g>
            <path d="M2,14 L14,14 L14,3 L2,3 L2,14 Z M1,2 L15,2 L15,15 L1,15 L1,2 Z" id="Rectangle-55" fill="#C7CFDB" fill-rule="nonzero"></path>
            <rect id="Rectangle-57" fill="#C7CFDB" x="5" y="1" width="1" height="3"></rect>
            <rect id="Rectangle-57" fill="#C7CFDB" x="10" y="1" width="1" height="3"></rect>
            <path d="M4,6 L6,6 L6,8 L4,8 L4,6 Z M7,6 L9,6 L9,8 L7,8 L7,6 Z M10,6 L12,6 L12,8 L10,8 L10,6 Z M4,9 L6,9 L6,11 L4,11 L4,9 Z M7,9 L9,9 L9,11 L7,11 L7,9 Z M10,9 L12,9 L12,11 L10,11 L10,9 Z" id="Combined-Shape" fill="#C7CFDB"></path>
        </g>
    </g>
</svg>
