<?xml version="1.0" encoding="UTF-8"?>
<svg width="16px" height="16px" viewBox="0 0 16 16" version="1.1" xmlns="http://www.w3.org/2000/svg" xmlns:xlink="http://www.w3.org/1999/xlink">
    <!-- Generator: Sketch 47.1 (45422) - http://www.bohemiancoding.com/sketch -->
    <title>delete</title>
    <desc>Created with Sketch.</desc>
    <defs></defs>
    <g id="icons" stroke="none" stroke-width="1" fill="none" fill-rule="evenodd">
        <g id="Group-18">
            <rect id="delete" fill="#D8D8D8" opacity="0" x="0" y="0" width="16" height="16"></rect>
            <path d="M13,4 L13,14 L3,14 L3,4 L2,4 L2,3 L6,3 L6,2 L10,2 L10,3 L14,3 L14,4 L13,4 L13,4 Z M12,4 L4,4 L4,13 L12,13 L12,4 L12,4 Z M6,6 L7,6 L7,11 L6,11 L6,6 Z M9,6 L10,6 L10,11 L9,11 L9,6 Z" id="Combined-Shape" fill="#4E5D6B"></path>
        </g>
    </g>
</svg>