<?xml version="1.0" encoding="UTF-8"?>
<svg width="24px" height="24px" viewBox="0 0 24 24" version="1.1" xmlns="http://www.w3.org/2000/svg" xmlns:xlink="http://www.w3.org/1999/xlink">
    <!-- Generator: Sketch 47.1 (45422) - http://www.bohemiancoding.com/sketch -->
    <title>错误24x24</title>
    <desc>Created with Sketch.</desc>
    <defs></defs>
    <g id="icons" stroke="none" stroke-width="1" fill="none" fill-rule="evenodd">
        <g id="Group-11" fill="#F5A623">
            <path d="M12,0 C18.627417,0 24,5.372583 24,12 C24,18.627417 18.627417,24 12,24 C5.372583,24 0,18.627417 0,12 C0,5.372583 5.372583,0 12,0 Z M12.0001928,5 C11.8944547,5 11.7888682,5.00800266 11.6843379,5.02393943 C10.5401628,5.19838127 9.75403859,6.26733156 9.92848044,7.41150672 L10.5966764,11.7942466 C10.7024011,12.4877019 11.2987244,13 12.0001928,13 C12.7016612,13 13.2979845,12.4877019 13.4037092,11.7942466 L14.0719052,7.41150672 C14.087842,7.30697646 14.0958446,7.20138996 14.0958446,7.09565182 C14.0958446,5.93825528 13.1575894,5 12.0001928,5 Z M12,19 C13.1045695,19 14,18.1045695 14,17 C14,15.8954305 13.1045695,15 12,15 C10.8954305,15 10,15.8954305 10,17 C10,18.1045695 10.8954305,19 12,19 Z" id="错误"></path>
        </g>
    </g>
</svg>
