<?xml version="1.0" encoding="UTF-8"?>
<svg width="12px" height="12px" viewBox="0 0 12 12" version="1.1" xmlns="http://www.w3.org/2000/svg" xmlns:xlink="http://www.w3.org/1999/xlink">
    <!-- Generator: Sketch 47.1 (45422) - http://www.bohemiancoding.com/sketch -->
    <title>药物icon12x12</title>
    <desc>Created with Sketch.</desc>
    <defs>
        <rect id="path-1" x="0" y="0" width="12" height="12"></rect>
    </defs>
    <g id="icons" stroke="none" stroke-width="1" fill="none" fill-rule="evenodd">
        <g id="Group-9">
            <g id="药物icon12x12" opacity="0">
                <use fill="#D8D8D8" fill-rule="evenodd" xlink:href="#path-1"></use>
                <rect stroke="#979797" stroke-width="1" x="0.5" y="0.5" width="11" height="11"></rect>
            </g>
            <path d="M5.25,6.75 L4,6.75 L4,8.25 L5.25,8.25 L5.25,9.5 L6.75,9.5 L6.75,8.25 L8,8.25 L8,6.75 L6.75,6.75 L6.75,5.5 L5.25,5.5 L5.25,6.75 Z M2,3 L10,3 L10.8320503,4.24807544 C10.941562,4.41234296 11,4.60535065 11,4.80277564 L11,11 C11,11.5522847 10.5522847,12 10,12 L2,12 C1.44771525,12 1,11.5522847 1,11 L1,4.80277564 L1,4.80277564 C1,4.60535065 1.05843803,4.41234296 1.16794971,4.24807544 L2,3 Z M2.5,0 L9.5,0 C9.77614237,-5.07265313e-17 10,0.223857625 10,0.5 L10,1.5 C10,1.77614237 9.77614237,2 9.5,2 L2.5,2 C2.22385763,2 2,1.77614237 2,1.5 L2,0.5 L2,0.5 C2,0.223857625 2.22385763,5.07265313e-17 2.5,0 Z" id="Combined-Shape" fill="#4E5D6B"></path>
        </g>
    </g>
</svg>