<?xml version="1.0" encoding="UTF-8"?>
<svg width="16px" height="16px" viewBox="0 0 16 16" version="1.1" xmlns="http://www.w3.org/2000/svg" xmlns:xlink="http://www.w3.org/1999/xlink">
    <!-- Generator: Sketch 49 (51002) - http://www.bohemiancoding.com/sketch -->
    <title>search</title>
    <desc>Created with Sketch.</desc>
    <defs>
        <rect id="path-1" x="0" y="0" width="16" height="16"></rect>
    </defs>
    <g id="page375" stroke="none" stroke-width="1" fill="none" fill-rule="evenodd">
        <g id="就诊情况-选择医院" transform="translate(-337.000000, -135.000000)">
            <g id="Group-20" transform="translate(337.000000, 135.000000)">
                <g id="search" opacity="0">
                    <use fill="#D8D8D8" fill-rule="evenodd" xlink:href="#path-1"></use>
                    <rect stroke="#979797" stroke-width="1" x="0.5" y="0.5" width="15" height="15"></rect>
                </g>
                <path d="M7,12 C9.76142375,12 12,9.76142375 12,7 C12,4.23857625 9.76142375,2 7,2 C4.23857625,2 2,4.23857625 2,7 C2,9.76142375 4.23857625,12 7,12 Z M12.6429298,11.1429298 L15.25,13.75 C15.6642136,14.1642136 15.6642136,14.8357864 15.25,15.25 C14.8357864,15.6642136 14.1642136,15.6642136 13.75,15.25 L11.1429298,12.6429298 C9.98293565,13.4960087 8.55032456,14 7,14 C3.13400675,14 0,10.8659932 0,7 C0,3.13400675 3.13400675,0 7,0 C10.8659932,0 14,3.13400675 14,7 C14,8.55032456 13.4960087,9.98293565 12.6429298,11.1429298 Z" id="Combined-Shape" fill="#C7CFDB" fill-rule="nonzero"></path>
            </g>
        </g>
    </g>
</svg>