<?xml version="1.0" encoding="UTF-8"?>
<svg width="12px" height="12px" viewBox="0 0 12 12" version="1.1" xmlns="http://www.w3.org/2000/svg" xmlns:xlink="http://www.w3.org/1999/xlink">
    <!-- Generator: Sketch 47.1 (45422) - http://www.bohemiancoding.com/sketch -->
    <title>Rectangle 7</title>
    <desc>Created with Sketch.</desc>
    <defs>
        <rect id="path-1" x="0" y="0" width="12" height="12"></rect>
    </defs>
    <g id="Symbols" stroke="none" stroke-width="1" fill="none" fill-rule="evenodd">
        <g id="from-select2" transform="translate(-138.000000, -43.000000)">
            <g id="Group" transform="translate(138.000000, 43.000000)">
                <g id="Rectangle-7" opacity="0">
                    <use fill="#D8D8D8" fill-rule="evenodd" xlink:href="#path-1"></use>
                    <rect stroke="#979797" stroke-width="1" x="0.5" y="0.5" width="11" height="11"></rect>
                </g>
                <path d="M6.70710678,9.29289322 C6.31658249,9.68341751 5.68341751,9.68341751 5.29289322,9.29289322 L5.29289322,9.29289322 L2.85355339,6.85355339 C2.7597852,6.7597852 2.70710678,6.63260824 2.70710678,6.5 C2.70710678,6.22385763 2.93096441,6 3.20710678,6 L8.79289322,6 C8.92550146,6 9.05267842,6.05267842 9.14644661,6.14644661 C9.34170876,6.34170876 9.34170876,6.65829124 9.14644661,6.85355339 L9.14644661,6.85355339 L6.70710678,9.29289322 Z M6.70710678,1.70710678 L9.14644661,4.14644661 L9.14644661,4.14644661 C9.34170876,4.34170876 9.34170876,4.65829124 9.14644661,4.85355339 C9.05267842,4.94732158 8.92550146,5 8.79289322,5 L3.20710678,5 C2.93096441,5 2.70710678,4.77614237 2.70710678,4.5 C2.70710678,4.36739176 2.7597852,4.2402148 2.85355339,4.14644661 L5.29289322,1.70710678 L5.29289322,1.70710678 C5.68341751,1.31658249 6.31658249,1.31658249 6.70710678,1.70710678 L6.70710678,1.70710678 Z" id="Combined-Shape" fill="#C7CFDB"></path>
            </g>
        </g>
    </g>
</svg>