<?xml version="1.0" encoding="UTF-8"?>
<svg width="24px" height="24px" viewBox="0 0 24 24" version="1.1" xmlns="http://www.w3.org/2000/svg" xmlns:xlink="http://www.w3.org/1999/xlink">
    <!-- Generator: Sketch 47.1 (45422) - http://www.bohemiancoding.com/sketch -->
    <title>正确24x24</title>
    <desc>Created with Sketch.</desc>
    <defs></defs>
    <g id="icons" stroke="none" stroke-width="1" fill="none" fill-rule="evenodd">
        <g id="Group-10" fill="#62CD75">
            <path d="M12,0 C18.627417,0 24,5.372583 24,12 C24,18.627417 18.627417,24 12,24 C5.372583,24 0,18.627417 0,12 C0,5.372583 5.372583,0 12,0 Z M8.60189843,10.5057829 C8.03980492,9.89722527 7.09080467,9.85955866 6.48224704,10.4216522 C5.87368941,10.9837457 5.8360228,11.9327459 6.39811632,12.5413036 L9.72367429,16.0177669 C10.3166961,16.6598094 11.3308534,16.6609031 11.9252586,16.0201412 L17.5997007,10.0201412 C18.1631055,9.4127974 18.1274858,8.46371811 17.520142,7.90031331 C16.9127982,7.33690851 15.9637189,7.37252813 15.4003141,7.97987196 L10.8279467,12.7918483 L8.60189843,10.5057829 Z" id="正确"></path>
        </g>
    </g>
</svg>